<svg xmlns="http://www.w3.org/2000/svg" width="40" height="40" viewBox="0 0 40 40" fill="none">
  <circle cx="20" cy="20" r="19.5" fill="#F4F4F5" stroke="#D4D4D4"/>
  <path d="M27.3805 16.6093C27.777 16.2129 27.9998 15.6751 27.9999 15.1144C27.9999 14.5537 27.7773 14.0159 27.3808 13.6194C26.9844 13.2229 26.4467 13.0001 25.886 13C25.3253 12.9999 24.7875 13.2226 24.391 13.619L14.3815 23.6308C14.2073 23.8044 14.0785 24.0182 14.0065 24.2533L13.0157 27.5173C12.9963 27.5821 12.9949 27.651 13.0115 27.7167C13.0281 27.7823 13.0621 27.8422 13.11 27.89C13.158 27.9379 13.2179 27.9718 13.2836 27.9883C13.3492 28.0048 13.4181 28.0033 13.483 27.9838L16.7477 26.9938C16.9826 26.9224 17.1963 26.7944 17.3702 26.621L27.3805 16.6093Z" stroke="#2B7FFF" stroke-width="2" stroke-linecap="round" stroke-linejoin="round"/>
  <path d="M22.7499 15.2503L25.7499 18.2503" stroke="#2B7FFF" stroke-width="2" stroke-linecap="round" stroke-linejoin="round"/>
</svg>